<?xml version="1.0" encoding="UTF-8" standalone="no"?>
<!DOCTYPE svg PUBLIC "-//W3C//DTD SVG 1.1//EN"
 "http://www.w3.org/Graphics/SVG/1.1/DTD/svg11.dtd">
<!-- Generated by graphviz version 16.1.0 (0)
 -->
<!-- Title: order Pages: 1 -->
<svg width="403pt" height="386pt"
 viewBox="0.00 0.00 403.00 386.00" xmlns="http://www.w3.org/2000/svg" xmlns:xlink="http://www.w3.org/1999/xlink">
<g id="graph0" class="graph" transform="scale(1 1) rotate(0) translate(14.4 371.65)">
<title>order</title>
<!-- t -->
<g id="node1" class="node">
<title>t</title>
<polygon fill="#f2f2f2" stroke="#333333" points="206,-357.25 114.25,-357.25 114.25,-321.25 206,-321.25 206,-357.25"/>
<text xml:space="preserve" text-anchor="middle" x="160.12" y="-334.57" font-family="Roboto" font-size="14.00">try do … end</text>
</g>
<!-- q -->
<g id="node2" class="node">
<title>q</title>
<polygon fill="#f2f2f2" stroke="#333333" points="247.62,-284.25 72.62,-284.25 72.62,-248.25 247.62,-248.25 247.62,-284.25"/>
<text xml:space="preserve" text-anchor="middle" x="160.12" y="-261.57" font-family="Roboto" font-size="14.00">Did it raise, throw or exit?</text>
</g>
<!-- t&#45;&gt;q -->
<g id="edge1" class="edge">
<title>t&#45;&gt;q</title>
<path fill="none" stroke="#333333" d="M160.12,-321.06C160.12,-313.48 160.12,-304.35 160.12,-295.79"/>
<polygon fill="#333333" stroke="#333333" points="163.63,-295.79 160.13,-285.79 156.63,-295.79 163.63,-295.79"/>
</g>
<!-- rc -->
<g id="node3" class="node">
<title>rc</title>
<polygon fill="#f2f2f2" stroke="#333333" points="126.25,-195 0,-195 0,-152.5 126.25,-152.5 126.25,-195"/>
<text xml:space="preserve" text-anchor="middle" x="63.12" y="-177.7" font-family="Roboto" font-size="14.00">rescue / catch</text>
<text xml:space="preserve" text-anchor="middle" x="63.12" y="-160.45" font-family="Roboto" font-size="14.00">matches the error</text>
</g>
<!-- q&#45;&gt;rc -->
<g id="edge2" class="edge">
<title>q&#45;&gt;rc</title>
<path fill="none" stroke="#333333" d="M141.42,-247.8C127.86,-235.15 109.22,-217.75 93.53,-203.12"/>
<polygon fill="#333333" stroke="#333333" points="95.97,-200.61 86.27,-196.35 91.2,-205.73 95.97,-200.61"/>
<text xml:space="preserve" text-anchor="middle" x="133.06" y="-216.95" font-family="Roboto" font-size="14.00"> yes</text>
</g>
<!-- el -->
<g id="node4" class="node">
<title>el</title>
<polygon fill="#f2f2f2" stroke="#333333" points="374,-195 144.25,-195 144.25,-152.5 374,-152.5 374,-195"/>
<text xml:space="preserve" text-anchor="middle" x="259.12" y="-177.7" font-family="Roboto" font-size="14.00">else</text>
<text xml:space="preserve" text-anchor="middle" x="259.12" y="-160.45" font-family="Roboto" font-size="14.00">matches the result of the do block</text>
</g>
<!-- q&#45;&gt;el -->
<g id="edge3" class="edge">
<title>q&#45;&gt;el</title>
<path fill="none" stroke="#333333" d="M179.21,-247.8C193.18,-235.03 212.43,-217.43 228.54,-202.71"/>
<polygon fill="#333333" stroke="#333333" points="230.49,-205.67 235.51,-196.34 225.77,-200.5 230.49,-205.67"/>
<text xml:space="preserve" text-anchor="middle" x="225.3" y="-216.95" font-family="Roboto" font-size="14.00"> no</text>
</g>
<!-- af -->
<g id="node5" class="node hl">
<title>af</title>
<polygon fill="#f2f2f2" stroke="#333333" points="303.5,-115.5 16.75,-115.5 16.75,-73 303.5,-73 303.5,-115.5"/>
<text xml:space="preserve" text-anchor="middle" x="160.12" y="-98.2" font-family="Roboto" font-size="14.00">after</text>
<text xml:space="preserve" text-anchor="middle" x="160.12" y="-80.95" font-family="Roboto" font-size="14.00">always runs, never changes the return value</text>
</g>
<!-- rc&#45;&gt;af -->
<g id="edge4" class="edge">
<title>rc&#45;&gt;af</title>
<path fill="none" stroke="#333333" d="M88.86,-152.18C100.05,-143.25 113.31,-132.65 125.35,-123.03"/>
<polygon fill="#333333" stroke="#333333" points="127.45,-125.83 133.08,-116.86 123.09,-120.36 127.45,-125.83"/>
</g>
<!-- el&#45;&gt;af -->
<g id="edge5" class="edge">
<title>el&#45;&gt;af</title>
<path fill="none" stroke="#333333" d="M232.85,-152.18C221.33,-143.16 207.63,-132.44 195.25,-122.75"/>
<polygon fill="#333333" stroke="#333333" points="197.74,-120.25 187.71,-116.84 193.43,-125.76 197.74,-120.25"/>
</g>
<!-- ret -->
<g id="node6" class="node">
<title>ret</title>
<polygon fill="#f2f2f2" stroke="#333333" points="214.25,-36 106,-36 106,0 214.25,0 214.25,-36"/>
<text xml:space="preserve" text-anchor="middle" x="160.12" y="-13.32" font-family="Roboto" font-size="14.00">value of the try</text>
</g>
<!-- af&#45;&gt;ret -->
<g id="edge6" class="edge">
<title>af&#45;&gt;ret</title>
<path fill="none" stroke="#333333" d="M160.12,-72.57C160.12,-64.75 160.12,-55.72 160.12,-47.32"/>
<polygon fill="#333333" stroke="#333333" points="163.63,-47.58 160.13,-37.58 156.63,-47.58 163.63,-47.58"/>
</g>
</g>
</svg>
