<?xml version="1.0" encoding="UTF-8" standalone="no"?>
<!DOCTYPE svg PUBLIC "-//W3C//DTD SVG 1.1//EN"
 "http://www.w3.org/Graphics/SVG/1.1/DTD/svg11.dtd">
<!-- Generated by graphviz version 16.1.0 (0)
 -->
<!-- Title: callbacks Pages: 1 -->
<svg width="709pt" height="312pt"
 viewBox="0.00 0.00 709.00 312.00" xmlns="http://www.w3.org/2000/svg" xmlns:xlink="http://www.w3.org/1999/xlink">
<g id="graph0" class="graph" transform="scale(1 1) rotate(0) translate(14.4 297.4)">
<title>callbacks</title>
<g id="clust1" class="cluster">
<title>cluster_server</title>
<polygon fill="none" stroke="black" points="438.75,-8 438.75,-275 671.75,-275 671.75,-8 438.75,-8"/>
<text xml:space="preserve" text-anchor="middle" x="555.25" y="-257.7" font-family="Roboto" font-size="14.00">server: the GenServer process</text>
</g>
<g id="clust2" class="cluster">
<title>cluster_client</title>
<polygon fill="none" stroke="black" points="8,-22 8,-268 303.25,-268 303.25,-22 8,-22"/>
<text xml:space="preserve" text-anchor="middle" x="155.62" y="-250.7" font-family="Roboto" font-size="14.00">client: any process</text>
</g>
<!-- s3 -->
<g id="node1" class="node">
<title>s3</title>
<polygon fill="#f2f2f2" stroke="#333333" points="636.38,-241.25 474.12,-241.25 474.12,-198.75 636.38,-198.75 636.38,-241.25"/>
<text xml:space="preserve" text-anchor="middle" x="555.25" y="-223.95" font-family="Roboto" font-size="14.00">handle_info(msg, state)</text>
<text xml:space="preserve" text-anchor="middle" x="555.25" y="-206.7" font-family="Roboto" font-size="14.00">{:noreply, new_state}</text>
</g>
<!-- s2 -->
<g id="node2" class="node">
<title>s2</title>
<polygon fill="#f2f2f2" stroke="#333333" points="648,-180.25 462.5,-180.25 462.5,-137.75 648,-137.75 648,-180.25"/>
<text xml:space="preserve" text-anchor="middle" x="555.25" y="-162.95" font-family="Roboto" font-size="14.00">handle_cast(request, state)</text>
<text xml:space="preserve" text-anchor="middle" x="555.25" y="-145.7" font-family="Roboto" font-size="14.00">{:noreply, new_state}</text>
</g>
<!-- s1 -->
<g id="node3" class="node hl">
<title>s1</title>
<polygon fill="#f2f2f2" stroke="#333333" points="663.75,-119.25 446.75,-119.25 446.75,-76.75 663.75,-76.75 663.75,-119.25"/>
<text xml:space="preserve" text-anchor="middle" x="555.25" y="-101.95" font-family="Roboto" font-size="14.00">handle_call(request, from, state)</text>
<text xml:space="preserve" text-anchor="middle" x="555.25" y="-84.7" font-family="Roboto" font-size="14.00">{:reply, reply, new_state}</text>
</g>
<!-- s0 -->
<g id="node4" class="node">
<title>s0</title>
<polygon fill="#f2f2f2" stroke="#333333" points="596.25,-58.25 514.25,-58.25 514.25,-15.75 596.25,-15.75 596.25,-58.25"/>
<text xml:space="preserve" text-anchor="middle" x="555.25" y="-40.95" font-family="Roboto" font-size="14.00">init(arg)</text>
<text xml:space="preserve" text-anchor="middle" x="555.25" y="-23.7" font-family="Roboto" font-size="14.00">{:ok, state}</text>
</g>
<!-- c3 -->
<g id="node5" class="node">
<title>c3</title>
<polygon fill="#f2f2f2" stroke="#333333" points="252.12,-234.25 59.12,-234.25 59.12,-191.75 252.12,-191.75 252.12,-234.25"/>
<text xml:space="preserve" text-anchor="middle" x="155.62" y="-216.95" font-family="Roboto" font-size="14.00">send(pid, msg)</text>
<text xml:space="preserve" text-anchor="middle" x="155.62" y="-199.7" font-family="Roboto" font-size="14.00">or a monitored process dies</text>
</g>
<!-- c3&#45;&gt;s3 -->
<g id="edge4" class="edge">
<title>c3&#45;&gt;s3</title>
<path fill="none" stroke="#333333" d="M252.37,-214.69C316.08,-215.81 399.31,-217.27 462.24,-218.38"/>
<polygon fill="#333333" stroke="#333333" points="462.17,-221.88 472.23,-218.56 462.29,-214.88 462.17,-221.88"/>
<text xml:space="preserve" text-anchor="middle" x="371" y="-221.69" font-family="Roboto" font-size="14.00"> {:DOWN, …}</text>
</g>
<!-- c2 -->
<g id="node6" class="node">
<title>c2</title>
<polygon fill="#f2f2f2" stroke="#333333" points="295.25,-174 16,-174 16,-138 295.25,-138 295.25,-174"/>
<text xml:space="preserve" text-anchor="middle" x="155.62" y="-151.32" font-family="Roboto" font-size="14.00">GenServer.cast(bucket, {:subscribe, self()})</text>
</g>
<!-- c2&#45;&gt;s2 -->
<g id="edge3" class="edge">
<title>c2&#45;&gt;s2</title>
<path fill="none" stroke="#333333" d="M295.69,-157.05C346.59,-157.43 403.25,-157.86 450.52,-158.22"/>
<polygon fill="#333333" stroke="#333333" points="450.47,-161.72 460.5,-158.29 450.52,-154.72 450.47,-161.72"/>
<text xml:space="preserve" text-anchor="middle" x="371" y="-161.98" font-family="Roboto" font-size="14.00"> doesn&#39;t wait</text>
</g>
<!-- c1 -->
<g id="node7" class="node hl">
<title>c1</title>
<polygon fill="#f2f2f2" stroke="#333333" points="286.25,-120 25,-120 25,-84 286.25,-84 286.25,-120"/>
<text xml:space="preserve" text-anchor="middle" x="155.62" y="-97.33" font-family="Roboto" font-size="14.00">GenServer.call(bucket, {:put, key, value})</text>
</g>
<!-- c1&#45;&gt;s1 -->
<g id="edge2" class="edge">
<title>c1&#45;&gt;s1</title>
<path fill="none" stroke="#333333" d="M286.55,-100.69C334.37,-100.21 388.27,-99.67 435.1,-99.2"/>
<polygon fill="#333333" stroke="#333333" points="435.05,-102.7 445.02,-99.1 434.98,-95.7 435.05,-102.7"/>
<text xml:space="preserve" text-anchor="middle" x="371" y="-104.31" font-family="Roboto" font-size="14.00"> waits for the reply</text>
</g>
<!-- c0 -->
<g id="node8" class="node">
<title>c0</title>
<polygon fill="#f2f2f2" stroke="#333333" points="291.88,-66 19.38,-66 19.38,-30 291.88,-30 291.88,-66"/>
<text xml:space="preserve" text-anchor="middle" x="155.62" y="-43.33" font-family="Roboto" font-size="14.00">GenServer.start_link(KV.Bucket, %{}, opts)</text>
</g>
<!-- c0&#45;&gt;s0 -->
<g id="edge1" class="edge">
<title>c0&#45;&gt;s0</title>
<path fill="none" stroke="#333333" d="M292.35,-44.25C364.72,-42.24 449.53,-39.9 502.59,-38.43"/>
<polygon fill="#333333" stroke="#333333" points="502.65,-41.93 512.55,-38.15 502.45,-34.93 502.65,-41.93"/>
<text xml:space="preserve" text-anchor="middle" x="371" y="-47.44" font-family="Roboto" font-size="14.00"> starts the server</text>
</g>
</g>
</svg>
