<?xml version="1.0" encoding="UTF-8" standalone="no"?>
<!DOCTYPE svg PUBLIC "-//W3C//DTD SVG 1.1//EN"
 "http://www.w3.org/Graphics/SVG/1.1/DTD/svg11.dtd">
<!-- Generated by graphviz version 16.1.0 (0)
 -->
<!-- Title: link_vs_monitor Pages: 1 -->
<svg width="675pt" height="231pt"
 viewBox="0.00 0.00 675.00 231.00" xmlns="http://www.w3.org/2000/svg" xmlns:xlink="http://www.w3.org/1999/xlink">
<g id="graph0" class="graph" transform="scale(1 1) rotate(0) translate(14.4 216.4)">
<title>link_vs_monitor</title>
<g id="clust1" class="cluster">
<title>cluster_mon</title>
<polygon fill="none" stroke="black" points="8,-8 8,-92 638,-92 638,-8 8,-8"/>
<text xml:space="preserve" text-anchor="middle" x="323" y="-74.7" font-family="Roboto" font-size="14.00">monitor: one&#45;way, just a message</text>
</g>
<g id="clust2" class="cluster">
<title>cluster_link</title>
<polygon fill="none" stroke="black" points="57.88,-100 57.88,-194 603.12,-194 603.12,-100 57.88,-100"/>
<text xml:space="preserve" text-anchor="middle" x="330.5" y="-176.7" font-family="Roboto" font-size="14.00">link: exit signals both ways</text>
</g>
<!-- w -->
<g id="node1" class="node hl">
<title>w</title>
<polygon fill="#f2f2f2" stroke="#333333" points="630,-58.25 481.25,-58.25 481.25,-15.75 630,-15.75 630,-58.25"/>
<text xml:space="preserve" text-anchor="middle" x="555.62" y="-40.95" font-family="Roboto" font-size="14.00">watcher</text>
<text xml:space="preserve" text-anchor="middle" x="555.62" y="-23.7" font-family="Roboto" font-size="14.00">Process.monitor(pid)</text>
</g>
<!-- t2 -->
<g id="node2" class="node">
<title>t2</title>
<polygon fill="#f2f2f2" stroke="#333333" points="194.75,-58.25 16,-58.25 16,-15.75 194.75,-15.75 194.75,-58.25"/>
<text xml:space="preserve" text-anchor="middle" x="105.38" y="-40.95" font-family="Roboto" font-size="14.00">watched process</text>
<text xml:space="preserve" text-anchor="middle" x="105.38" y="-23.7" font-family="Roboto" font-size="14.00">terminates, for any reason</text>
</g>
<!-- t2&#45;&gt;w -->
<g id="edge1" class="edge">
<title>t2&#45;&gt;w</title>
<path fill="none" stroke="#333333" d="M195.2,-37C274.87,-37 390.99,-37 469.51,-37"/>
<polygon fill="#333333" stroke="#333333" points="469.29,-40.5 479.29,-37 469.29,-33.5 469.29,-40.5"/>
<text xml:space="preserve" text-anchor="middle" x="338" y="-40.95" font-family="Roboto" font-size="14.00"> {:DOWN, ref, :process, pid, reason}</text>
</g>
<!-- a -->
<g id="node3" class="node">
<title>a</title>
<polygon fill="#f2f2f2" stroke="#333333" points="595.12,-144 516.12,-144 516.12,-108 595.12,-108 595.12,-144"/>
<text xml:space="preserve" text-anchor="middle" x="555.62" y="-121.33" font-family="Roboto" font-size="14.00">process A</text>
</g>
<!-- b -->
<g id="node4" class="node">
<title>b</title>
<polygon fill="#f2f2f2" stroke="#333333" points="144.88,-144 65.88,-144 65.88,-108 144.88,-108 144.88,-144"/>
<text xml:space="preserve" text-anchor="middle" x="105.38" y="-121.33" font-family="Roboto" font-size="14.00">process B</text>
</g>
<!-- b&#45;&gt;a -->
<g id="edge2" class="edge bad">
<title>b&#45;&gt;a</title>
<path fill="none" stroke="#333333" stroke-dasharray="5,2" d="M145.37,-126C226.69,-126 414.27,-126 504.44,-126"/>
<polygon fill="#333333" stroke="#333333" points="504.21,-129.5 514.21,-126 504.21,-122.5 504.21,-129.5"/>
<text xml:space="preserve" text-anchor="start" x="212.75" y="-147.2" font-family="Roboto" font-size="14.00"> B crashes: exit signal kills A too</text>
<text xml:space="preserve" text-anchor="start" x="212.75" y="-129.95" font-family="Roboto" font-size="14.00">(unless A traps exits, as supervisors do)</text>
</g>
</g>
</svg>
