<?xml version="1.0" encoding="UTF-8" standalone="no"?>
<!DOCTYPE svg PUBLIC "-//W3C//DTD SVG 1.1//EN"
 "http://www.w3.org/Graphics/SVG/1.1/DTD/svg11.dtd">
<!-- Generated by graphviz version 16.1.0 (0)
 -->
<!-- Title: call Pages: 1 -->
<svg width="613pt" height="126pt"
 viewBox="0.00 0.00 613.00 126.00" xmlns="http://www.w3.org/2000/svg" xmlns:xlink="http://www.w3.org/1999/xlink">
<g id="graph0" class="graph" transform="scale(1 1) rotate(0) translate(14.4 111.65)">
<title>call</title>
<!-- c1 -->
<g id="node1" class="node hl">
<title>c1</title>
<polygon fill="#f2f2f2" stroke="#333333" points="86.88,-36 12.38,-36 12.38,0 86.88,0 86.88,-36"/>
<text xml:space="preserve" text-anchor="middle" x="49.62" y="-13.32" font-family="Roboto" font-size="14.00">add.(1, 2)</text>
</g>
<!-- v -->
<g id="node2" class="node">
<title>v</title>
<polygon fill="#f2f2f2" stroke="#333333" points="402.88,-36 310.38,-36 310.38,0 402.88,0 402.88,-36"/>
<text xml:space="preserve" text-anchor="middle" x="356.62" y="-13.32" font-family="Roboto" font-size="14.00">variable add</text>
</g>
<!-- c1&#45;&gt;v -->
<g id="edge1" class="edge">
<title>c1&#45;&gt;v</title>
<path fill="none" stroke="#333333" d="M87.11,-18C139.58,-18 236.83,-18 298.78,-18"/>
<polygon fill="#333333" stroke="#333333" points="298.4,-21.5 308.4,-18 298.4,-14.5 298.4,-21.5"/>
<text xml:space="preserve" text-anchor="middle" x="197.5" y="-39.2" font-family="Roboto" font-size="14.00"> the dot: call</text>
<text xml:space="preserve" text-anchor="middle" x="197.5" y="-21.95" font-family="Roboto" font-size="14.00"> through the variable</text>
</g>
<!-- f -->
<g id="node3" class="node">
<title>f</title>
<polygon fill="#f2f2f2" stroke="#333333" points="584.5,-36 454.5,-36 454.5,0 584.5,0 584.5,-36"/>
<text xml:space="preserve" text-anchor="middle" x="519.5" y="-13.32" font-family="Roboto" font-size="14.00">fn a, b &#45;&gt; a + b end</text>
</g>
<!-- v&#45;&gt;f -->
<g id="edge2" class="edge">
<title>v&#45;&gt;f</title>
<path fill="none" stroke="#333333" d="M403.29,-18C415.63,-18 429.32,-18 442.83,-18"/>
<polygon fill="#333333" stroke="#333333" points="442.59,-21.5 452.59,-18 442.59,-14.5 442.59,-21.5"/>
</g>
<!-- c2 -->
<g id="node4" class="node hl">
<title>c2</title>
<polygon fill="#f2f2f2" stroke="#333333" points="99.25,-94 0,-94 0,-58 99.25,-58 99.25,-94"/>
<text xml:space="preserve" text-anchor="middle" x="49.62" y="-71.33" font-family="Roboto" font-size="14.00">is_atom(:foo)</text>
</g>
<!-- n -->
<g id="node5" class="node">
<title>n</title>
<polygon fill="#f2f2f2" stroke="#333333" points="417.5,-97.25 295.75,-97.25 295.75,-54.75 417.5,-54.75 417.5,-97.25"/>
<text xml:space="preserve" text-anchor="middle" x="356.62" y="-79.95" font-family="Roboto" font-size="14.00">named function</text>
<text xml:space="preserve" text-anchor="middle" x="356.62" y="-62.7" font-family="Roboto" font-size="14.00">Kernel.is_atom/1</text>
</g>
<!-- c2&#45;&gt;n -->
<g id="edge3" class="edge">
<title>c2&#45;&gt;n</title>
<path fill="none" stroke="#333333" d="M99.63,-76C149.49,-76 227.3,-76 284.05,-76"/>
<polygon fill="#333333" stroke="#333333" points="283.95,-79.5 293.95,-76 283.95,-72.5 283.95,-79.5"/>
<text xml:space="preserve" text-anchor="middle" x="197.5" y="-79.95" font-family="Roboto" font-size="14.00"> no dot: a named function</text>
</g>
</g>
</svg>
