<?xml version="1.0" encoding="UTF-8" standalone="no"?>
<!DOCTYPE svg PUBLIC "-//W3C//DTD SVG 1.1//EN"
 "http://www.w3.org/Graphics/SVG/1.1/DTD/svg11.dtd">
<!-- Generated by graphviz version 16.1.0 (0)
 -->
<!-- Title: closure Pages: 1 -->
<svg width="557pt" height="265pt"
 viewBox="0.00 0.00 557.00 265.00" xmlns="http://www.w3.org/2000/svg" xmlns:xlink="http://www.w3.org/1999/xlink">
<g id="graph0" class="graph" transform="scale(1 1) rotate(0) translate(14.4 250.4)">
<title>closure</title>
<g id="clust1" class="cluster">
<title>cluster_a</title>
<polygon fill="none" stroke="black" points="8,-8 8,-228 256,-228 256,-8 8,-8"/>
<text xml:space="preserve" text-anchor="middle" x="132" y="-210.7" font-family="Roboto" font-size="14.00">in one process</text>
</g>
<g id="clust2" class="cluster">
<title>cluster_b</title>
<polygon fill="none" stroke="black" points="264,-8 264,-91.75 520,-91.75 520,-8 264,-8"/>
<text xml:space="preserve" text-anchor="middle" x="392" y="-74.45" font-family="Roboto" font-size="14.00">the receiving process</text>
</g>
<!-- big -->
<g id="node1" class="node">
<title>big</title>
<polygon fill="#f2f2f2" stroke="#333333" points="214.25,-58.5 49.75,-58.5 49.75,-16 214.25,-16 214.25,-58.5"/>
<text xml:space="preserve" text-anchor="middle" x="132" y="-41.2" font-family="Roboto" font-size="14.00">a list of 10_000 integers</text>
<text xml:space="preserve" text-anchor="middle" x="132" y="-23.95" font-family="Roboto" font-size="14.00">20_000 words</text>
</g>
<!-- fn -->
<g id="node2" class="node hl">
<title>fn</title>
<polygon fill="#f2f2f2" stroke="#333333" points="247.62,-194.75 16.38,-194.75 16.38,-152.25 247.62,-152.25 247.62,-194.75"/>
<text xml:space="preserve" text-anchor="middle" x="132" y="-177.45" font-family="Roboto" font-size="14.00">the fun object, made by make_fun3</text>
<text xml:space="preserve" text-anchor="middle" x="132" y="-160.2" font-family="Roboto" font-size="14.00">holds the captured variable</text>
</g>
<!-- fn&#45;&gt;big -->
<g id="edge1" class="edge">
<title>fn&#45;&gt;big</title>
<path fill="none" stroke="#333333" d="M132,-151.82C132,-129.98 132,-95.26 132,-69.96"/>
<polygon fill="#333333" stroke="#333333" points="135.5,-70.25 132,-60.25 128.5,-70.25 135.5,-70.25"/>
<text xml:space="preserve" text-anchor="start" x="132" y="-112.33" font-family="Roboto" font-size="14.00"> captures</text>
</g>
<!-- copy -->
<g id="node3" class="node">
<title>copy</title>
<polygon fill="#f2f2f2" stroke="#333333" points="512.12,-58.5 271.88,-58.5 271.88,-16 512.12,-16 512.12,-58.5"/>
<text xml:space="preserve" text-anchor="middle" x="392" y="-41.2" font-family="Roboto" font-size="14.00">a full copy of the closure and its list</text>
<text xml:space="preserve" text-anchor="middle" x="392" y="-23.95" font-family="Roboto" font-size="14.00">the receiver grew by 160 KB</text>
</g>
<!-- fn&#45;&gt;copy -->
<g id="edge2" class="edge">
<title>fn&#45;&gt;copy</title>
<path fill="none" stroke="#333333" d="M172.06,-151.82C217.67,-128.26 292.26,-89.75 341.74,-64.2"/>
<polygon fill="#333333" stroke="#333333" points="343.27,-67.35 350.55,-59.65 340.06,-61.13 343.27,-67.35"/>
<text xml:space="preserve" text-anchor="start" x="269.8" y="-120.95" font-family="Roboto" font-size="14.00"> send: copies</text>
<text xml:space="preserve" text-anchor="start" x="269.8" y="-103.7" font-family="Roboto" font-size="14.00"> everything captured</text>
</g>
</g>
</svg>
