<?xml version="1.0" encoding="UTF-8" standalone="no"?>
<!DOCTYPE svg PUBLIC "-//W3C//DTD SVG 1.1//EN"
 "http://www.w3.org/Graphics/SVG/1.1/DTD/svg11.dtd">
<!-- Generated by graphviz version 16.1.0 (0)
 -->
<!-- Title: iodata_chardata Pages: 1 -->
<svg width="556pt" height="161pt"
 viewBox="0.00 0.00 556.00 161.00" xmlns="http://www.w3.org/2000/svg" xmlns:xlink="http://www.w3.org/1999/xlink">
<g id="graph0" class="graph" transform="scale(1 1) rotate(0) translate(14.4 146.15)">
<title>iodata_chardata</title>
<!-- q -->
<g id="node1" class="node">
<title>q</title>
<polygon fill="#f2f2f2" stroke="#333333" points="357.5,-131.75 141.25,-131.75 141.25,-95.75 357.5,-95.75 357.5,-131.75"/>
<text xml:space="preserve" text-anchor="middle" x="249.38" y="-109.08" font-family="Roboto" font-size="14.00">How was the IO device opened?</text>
</g>
<!-- a -->
<g id="node2" class="node hl">
<title>a</title>
<polygon fill="#f2f2f2" stroke="#333333" points="226.75,-59.75 0,-59.75 0,0 226.75,0 226.75,-59.75"/>
<text xml:space="preserve" text-anchor="middle" x="113.38" y="-42.45" font-family="Roboto" font-size="14.00">no encoding (File.open default)</text>
<text xml:space="preserve" text-anchor="middle" x="113.38" y="-25.2" font-family="Roboto" font-size="14.00">expects iodata: integers are bytes</text>
<text xml:space="preserve" text-anchor="middle" x="113.38" y="-7.95" font-family="Roboto" font-size="14.00">use IO.binwrite / IO.binread</text>
</g>
<!-- q&#45;&gt;a -->
<g id="edge1" class="edge">
<title>q&#45;&gt;a</title>
<path fill="none" stroke="#333333" d="M220.53,-95.39C206.32,-86.83 188.65,-76.19 171.79,-66.04"/>
<polygon fill="#333333" stroke="#333333" points="173.65,-63.08 163.28,-60.92 170.04,-69.07 173.65,-63.08"/>
</g>
<!-- b -->
<g id="node3" class="node hl">
<title>b</title>
<polygon fill="#f2f2f2" stroke="#333333" points="527.5,-59.75 245.25,-59.75 245.25,0 527.5,0 527.5,-59.75"/>
<text xml:space="preserve" text-anchor="middle" x="386.38" y="-42.45" font-family="Roboto" font-size="14.00">:stdio, or File.open with :utf8</text>
<text xml:space="preserve" text-anchor="middle" x="386.38" y="-25.2" font-family="Roboto" font-size="14.00">expects chardata: integers are code points</text>
<text xml:space="preserve" text-anchor="middle" x="386.38" y="-7.95" font-family="Roboto" font-size="14.00">use IO.puts / IO.write</text>
</g>
<!-- q&#45;&gt;b -->
<g id="edge2" class="edge">
<title>q&#45;&gt;b</title>
<path fill="none" stroke="#333333" d="M278.43,-95.39C292.74,-86.83 310.54,-76.19 327.53,-66.04"/>
<polygon fill="#333333" stroke="#333333" points="329.32,-69.05 336.11,-60.91 325.73,-63.04 329.32,-69.05"/>
</g>
</g>
</svg>
