<?xml version="1.0" encoding="UTF-8" standalone="no"?>
<!DOCTYPE svg PUBLIC "-//W3C//DTD SVG 1.1//EN"
 "http://www.w3.org/Graphics/SVG/1.1/DTD/svg11.dtd">
<!-- Generated by graphviz version 16.1.0 (0)
 -->
<!-- Title: app_files Pages: 1 -->
<svg width="451pt" height="263pt"
 viewBox="0.00 0.00 451.00 263.00" xmlns="http://www.w3.org/2000/svg" xmlns:xlink="http://www.w3.org/1999/xlink">
<g id="graph0" class="graph" transform="scale(1 1) rotate(0) translate(14.4 248.4)">
<title>app_files</title>
<!-- app -->
<g id="node1" class="node hl">
<title>app</title>
<polygon fill="#f2f2f2" stroke="#333333" points="316.88,-234 195.12,-234 195.12,-191.5 316.88,-191.5 316.88,-234"/>
<text xml:space="preserve" text-anchor="middle" x="256" y="-216.7" font-family="Roboto" font-size="14.00">application :kv</text>
<text xml:space="preserve" text-anchor="middle" x="256" y="-199.45" font-family="Roboto" font-size="14.00">_build/dev/lib/kv</text>
</g>
<!-- ebin -->
<g id="node2" class="node">
<title>ebin</title>
<polygon fill="#f2f2f2" stroke="#333333" points="292,-155.5 0,-155.5 0,-113 292,-113 292,-155.5"/>
<text xml:space="preserve" text-anchor="middle" x="146" y="-138.2" font-family="Roboto" font-size="14.00">ebin/</text>
<text xml:space="preserve" text-anchor="middle" x="146" y="-120.95" font-family="Roboto" font-size="14.00">Elixir.KV.beam, Elixir.KV.Bucket.beam, kv.app</text>
</g>
<!-- app&#45;&gt;ebin -->
<g id="edge1" class="edge">
<title>app&#45;&gt;ebin</title>
<path fill="none" stroke="#333333" d="M226.23,-191.05C213.51,-182.2 198.5,-171.76 184.92,-162.32"/>
<polygon fill="#333333" stroke="#333333" points="187.24,-159.67 177.03,-156.83 183.25,-165.42 187.24,-159.67"/>
</g>
<!-- priv -->
<g id="node3" class="node">
<title>priv</title>
<polygon fill="#f2f2f2" stroke="#333333" points="422,-155.5 310,-155.5 310,-113 422,-113 422,-155.5"/>
<text xml:space="preserve" text-anchor="middle" x="366" y="-138.2" font-family="Roboto" font-size="14.00">priv/</text>
<text xml:space="preserve" text-anchor="middle" x="366" y="-120.95" font-family="Roboto" font-size="14.00">any other asset</text>
</g>
<!-- app&#45;&gt;priv -->
<g id="edge2" class="edge">
<title>app&#45;&gt;priv</title>
<path fill="none" stroke="#333333" d="M285.77,-191.05C298.49,-182.2 313.5,-171.76 327.08,-162.32"/>
<polygon fill="#333333" stroke="#333333" points="328.75,-165.42 334.97,-156.83 324.76,-159.67 328.75,-165.42"/>
</g>
<!-- appfile -->
<g id="node4" class="node">
<title>appfile</title>
<polygon fill="#f2f2f2" stroke="#333333" points="276.62,-77 15.38,-77 15.38,0 276.62,0 276.62,-77"/>
<text xml:space="preserve" text-anchor="middle" x="146" y="-59.7" font-family="Roboto" font-size="14.00">kv.app</text>
<text xml:space="preserve" text-anchor="middle" x="146" y="-42.45" font-family="Roboto" font-size="14.00">applications: kernel, stdlib, elixir, logger</text>
<text xml:space="preserve" text-anchor="middle" x="146" y="-25.2" font-family="Roboto" font-size="14.00">modules: KV, KV.Bucket</text>
<text xml:space="preserve" text-anchor="middle" x="146" y="-7.95" font-family="Roboto" font-size="14.00">mod: {KV, []} &#160;&#160;vsn: &quot;0.1.0&quot;</text>
</g>
<!-- ebin&#45;&gt;appfile -->
<g id="edge3" class="edge">
<title>ebin&#45;&gt;appfile</title>
<path fill="none" stroke="#333333" d="M146,-112.91C146,-105.64 146,-97.11 146,-88.48"/>
<polygon fill="#333333" stroke="#333333" points="149.5,-88.7 146,-78.7 142.5,-88.7 149.5,-88.7"/>
</g>
</g>
</svg>
