<?xml version="1.0" encoding="UTF-8" standalone="no"?>
<!DOCTYPE svg PUBLIC "-//W3C//DTD SVG 1.1//EN"
 "http://www.w3.org/Graphics/SVG/1.1/DTD/svg11.dtd">
<!-- Generated by graphviz version 16.1.0 (0)
 -->
<!-- Title: struct_32 Pages: 1 -->
<svg width="729pt" height="224pt"
 viewBox="0.00 0.00 729.00 224.00" xmlns="http://www.w3.org/2000/svg" xmlns:xlink="http://www.w3.org/1999/xlink">
<g id="graph0" class="graph" transform="scale(1 1) rotate(0) translate(14.4 209.9)">
<title>struct_32</title>
<g id="clust1" class="cluster">
<title>cluster_hash</title>
<polygon fill="none" stroke="black" points="8,-103.75 8,-187.5 477,-187.5 477,-103.75 8,-103.75"/>
<text xml:space="preserve" text-anchor="middle" x="242.5" y="-170.2" font-family="Roboto" font-size="14.00">32 or more fields: hash map</text>
</g>
<g id="clust2" class="cluster">
<title>cluster_flat</title>
<polygon fill="none" stroke="black" points="485,-8 485,-187.5 692,-187.5 692,-8 485,-8"/>
<text xml:space="preserve" text-anchor="middle" x="588.5" y="-170.2" font-family="Roboto" font-size="14.00">fewer than 32 fields: flat map</text>
</g>
<!-- h1 -->
<g id="node1" class="node">
<title>h1</title>
<polygon fill="#f2f2f2" stroke="#333333" points="251.5,-154.25 16.5,-154.25 16.5,-111.75 251.5,-111.75 251.5,-154.25"/>
<text xml:space="preserve" text-anchor="middle" x="134" y="-136.95" font-family="Roboto" font-size="14.00">%Big{…}</text>
<text xml:space="preserve" text-anchor="middle" x="134" y="-119.7" font-family="Roboto" font-size="14.00">keys and values in a hash structure</text>
</g>
<!-- h2 -->
<g id="node2" class="node">
<title>h2</title>
<polygon fill="#f2f2f2" stroke="#333333" points="468.5,-154.25 269.5,-154.25 269.5,-111.75 468.5,-111.75 468.5,-154.25"/>
<text xml:space="preserve" text-anchor="middle" x="369" y="-136.95" font-family="Roboto" font-size="14.00">%Big{…}</text>
<text xml:space="preserve" text-anchor="middle" x="369" y="-119.7" font-family="Roboto" font-size="14.00">keys stored again: no sharing</text>
</g>
<!-- k -->
<g id="node3" class="node hl">
<title>k</title>
<polygon fill="#f2f2f2" stroke="#333333" points="668,-58.5 508,-58.5 508,-16 668,-16 668,-58.5"/>
<text xml:space="preserve" text-anchor="middle" x="588" y="-41.2" font-family="Roboto" font-size="14.00">one tuple of keys</text>
<text xml:space="preserve" text-anchor="middle" x="588" y="-23.95" font-family="Roboto" font-size="14.00">shared at compile time</text>
</g>
<!-- v1 -->
<g id="node4" class="node">
<title>v1</title>
<polygon fill="#f2f2f2" stroke="#333333" points="579.25,-154.25 492.75,-154.25 492.75,-111.75 579.25,-111.75 579.25,-154.25"/>
<text xml:space="preserve" text-anchor="middle" x="536" y="-136.95" font-family="Roboto" font-size="14.00">%User{…}</text>
<text xml:space="preserve" text-anchor="middle" x="536" y="-119.7" font-family="Roboto" font-size="14.00">values only</text>
</g>
<!-- v1&#45;&gt;k -->
<g id="edge1" class="edge">
<title>v1&#45;&gt;k</title>
<path fill="none" stroke="#333333" d="M544.36,-111.26C548.91,-100.63 554.9,-87.62 561.25,-76.5 562.78,-73.82 564.44,-71.09 566.17,-68.39"/>
<polygon fill="#333333" stroke="#333333" points="569.07,-70.36 571.73,-60.1 563.25,-66.46 569.07,-70.36"/>
<text xml:space="preserve" text-anchor="middle" x="584.12" y="-80.45" font-family="Roboto" font-size="14.00"> shares</text>
</g>
<!-- v2 -->
<g id="node5" class="node">
<title>v2</title>
<polygon fill="#f2f2f2" stroke="#333333" points="684.25,-154.25 597.75,-154.25 597.75,-111.75 684.25,-111.75 684.25,-154.25"/>
<text xml:space="preserve" text-anchor="middle" x="641" y="-136.95" font-family="Roboto" font-size="14.00">%User{…}</text>
<text xml:space="preserve" text-anchor="middle" x="641" y="-119.7" font-family="Roboto" font-size="14.00">values only</text>
</g>
<!-- v2&#45;&gt;k -->
<g id="edge2" class="edge">
<title>v2&#45;&gt;k</title>
<path fill="none" stroke="#333333" d="M629.5,-111.66C622.4,-99.09 613.15,-82.73 605.18,-68.64"/>
<polygon fill="#333333" stroke="#333333" points="608.37,-67.18 600.41,-60.19 602.28,-70.62 608.37,-67.18"/>
<text xml:space="preserve" text-anchor="middle" x="642.12" y="-80.45" font-family="Roboto" font-size="14.00"> shares</text>
</g>
</g>
</svg>
