<?xml version="1.0" encoding="UTF-8" standalone="no"?>
<!DOCTYPE svg PUBLIC "-//W3C//DTD SVG 1.1//EN"
 "http://www.w3.org/Graphics/SVG/1.1/DTD/svg11.dtd">
<!-- Generated by graphviz version 16.1.0 (0)
 -->
<!-- Title: dispatch Pages: 1 -->
<svg width="679pt" height="186pt"
 viewBox="0.00 0.00 679.00 186.00" xmlns="http://www.w3.org/2000/svg" xmlns:xlink="http://www.w3.org/1999/xlink">
<g id="graph0" class="graph" transform="scale(1 1) rotate(0) translate(14.4 171.65)">
<title>dispatch</title>
<!-- c1 -->
<g id="node1" class="node">
<title>c1</title>
<polygon fill="#f2f2f2" stroke="#333333" points="122.5,-147 3.75,-147 3.75,-111 122.5,-111 122.5,-147"/>
<text xml:space="preserve" text-anchor="middle" x="63.12" y="-124.33" font-family="Roboto" font-size="14.00">Utility.type(&quot;foo&quot;)</text>
</g>
<!-- proto -->
<g id="node4" class="node hl">
<title>proto</title>
<polygon fill="#f2f2f2" stroke="#333333" points="299.25,-104.88 163.25,-104.88 163.25,-45.12 299.25,-45.12 299.25,-104.88"/>
<text xml:space="preserve" text-anchor="middle" x="231.25" y="-87.58" font-family="Roboto" font-size="14.00">defprotocol Utility</text>
<text xml:space="preserve" text-anchor="middle" x="231.25" y="-70.33" font-family="Roboto" font-size="14.00">looks at the type of</text>
<text xml:space="preserve" text-anchor="middle" x="231.25" y="-53.08" font-family="Roboto" font-size="14.00">the first argument</text>
</g>
<!-- c1&#45;&gt;proto -->
<g id="edge1" class="edge">
<title>c1&#45;&gt;proto</title>
<path fill="none" stroke="#333333" d="M120.83,-110.57C130.88,-107.3 141.5,-103.85 152.01,-100.43"/>
<polygon fill="#333333" stroke="#333333" points="153.04,-103.78 161.47,-97.36 150.87,-97.12 153.04,-103.78"/>
</g>
<!-- c2 -->
<g id="node2" class="node">
<title>c2</title>
<polygon fill="#f2f2f2" stroke="#333333" points="119.5,-93 6.75,-93 6.75,-57 119.5,-57 119.5,-93"/>
<text xml:space="preserve" text-anchor="middle" x="63.12" y="-70.33" font-family="Roboto" font-size="14.00">Utility.type(123)</text>
</g>
<!-- c2&#45;&gt;proto -->
<g id="edge2" class="edge">
<title>c2&#45;&gt;proto</title>
<path fill="none" stroke="#333333" d="M119.9,-75C130.01,-75 140.72,-75 151.35,-75"/>
<polygon fill="#333333" stroke="#333333" points="151.29,-78.5 161.29,-75 151.29,-71.5 151.29,-78.5"/>
</g>
<!-- c3 -->
<g id="node3" class="node">
<title>c3</title>
<polygon fill="#f2f2f2" stroke="#333333" points="126.25,-39 0,-39 0,-3 126.25,-3 126.25,-39"/>
<text xml:space="preserve" text-anchor="middle" x="63.12" y="-16.32" font-family="Roboto" font-size="14.00">Utility.type(:atom)</text>
</g>
<!-- c3&#45;&gt;proto -->
<g id="edge3" class="edge">
<title>c3&#45;&gt;proto</title>
<path fill="none" stroke="#333333" d="M120.83,-39.43C130.88,-42.7 141.5,-46.15 152.01,-49.57"/>
<polygon fill="#333333" stroke="#333333" points="150.87,-52.88 161.47,-52.64 153.04,-46.22 150.87,-52.88"/>
</g>
<!-- i1 -->
<g id="node5" class="node">
<title>i1</title>
<polygon fill="#f2f2f2" stroke="#333333" points="649.75,-157.25 463.5,-157.25 463.5,-114.75 649.75,-114.75 649.75,-157.25"/>
<text xml:space="preserve" text-anchor="middle" x="556.62" y="-139.95" font-family="Roboto" font-size="14.00">defimpl Utility, for: BitString</text>
<text xml:space="preserve" text-anchor="middle" x="556.62" y="-122.7" font-family="Roboto" font-size="14.00">&quot;string&quot;</text>
</g>
<!-- proto&#45;&gt;i1 -->
<g id="edge4" class="edge">
<title>proto&#45;&gt;i1</title>
<path fill="none" stroke="#333333" d="M299.65,-87.71C343.7,-96.02 402.11,-107.04 452.01,-116.45"/>
<polygon fill="#333333" stroke="#333333" points="451.21,-119.87 461.69,-118.28 452.51,-112.99 451.21,-119.87"/>
</g>
<!-- i2 -->
<g id="node6" class="node">
<title>i2</title>
<polygon fill="#f2f2f2" stroke="#333333" points="644.5,-96.25 468.75,-96.25 468.75,-53.75 644.5,-53.75 644.5,-96.25"/>
<text xml:space="preserve" text-anchor="middle" x="556.62" y="-78.95" font-family="Roboto" font-size="14.00">defimpl Utility, for: Integer</text>
<text xml:space="preserve" text-anchor="middle" x="556.62" y="-61.7" font-family="Roboto" font-size="14.00">&quot;integer&quot;</text>
</g>
<!-- proto&#45;&gt;i2 -->
<g id="edge5" class="edge">
<title>proto&#45;&gt;i2</title>
<path fill="none" stroke="#333333" d="M299.65,-75C345.16,-75 406,-75 456.95,-75"/>
<polygon fill="#333333" stroke="#333333" points="456.82,-78.5 466.82,-75 456.82,-71.5 456.82,-78.5"/>
</g>
<!-- err -->
<g id="node7" class="node">
<title>err</title>
<polygon fill="#f2f2f2" stroke="#333333" points="640,-36 473.25,-36 473.25,0 640,0 640,-36"/>
<text xml:space="preserve" text-anchor="middle" x="556.62" y="-13.32" font-family="Roboto" font-size="14.00">Protocol.UndefinedError</text>
</g>
<!-- proto&#45;&gt;err -->
<g id="edge6" class="edge bad">
<title>proto&#45;&gt;err</title>
<path fill="none" stroke="#333333" stroke-dasharray="5,2" d="M299.39,-57.58C305.41,-56.21 311.43,-54.91 317.25,-53.75 364.53,-44.32 417.54,-36.13 461.55,-29.98"/>
<polygon fill="#333333" stroke="#333333" points="461.9,-33.47 471.32,-28.63 460.94,-26.54 461.9,-33.47"/>
<text xml:space="preserve" text-anchor="middle" x="381.38" y="-57.7" font-family="Roboto" font-size="14.00"> no defimpl for Atom</text>
</g>
</g>
</svg>
