<?xml version="1.0" encoding="UTF-8" standalone="no"?>
<!DOCTYPE svg PUBLIC "-//W3C//DTD SVG 1.1//EN"
 "http://www.w3.org/Graphics/SVG/1.1/DTD/svg11.dtd">
<!-- Generated by graphviz version 16.1.0 (0)
 -->
<!-- Title: utf8_match Pages: 1 -->
<svg width="395pt" height="253pt"
 viewBox="0.00 0.00 395.00 253.00" xmlns="http://www.w3.org/2000/svg" xmlns:xlink="http://www.w3.org/1999/xlink">
<g id="graph0" class="graph" transform="scale(1 1) rotate(0) translate(14.4 238.4)">
<title>utf8_match</title>
<!-- p1 -->
<g id="node1" class="node">
<title>p1</title>
<polygon fill="#f2f2f2" stroke="#333333" points="21.75,-187.5 21.75,-223.5 129.5,-223.5 129.5,-187.5 21.75,-187.5"/>
<text xml:space="preserve" text-anchor="middle" x="33.12" y="-200.82" font-family="Roboto" font-size="14.00">x</text>
<polyline fill="none" stroke="#333333" points="44.5,-187.5 44.5,-223.5"/>
<text xml:space="preserve" text-anchor="middle" x="87" y="-200.82" font-family="Roboto" font-size="14.00">rest::binary</text>
</g>
<!-- bytes -->
<g id="node2" class="node hl">
<title>bytes</title>
<polygon fill="#f2f2f2" stroke="#333333" points="10.88,-80 10.88,-116 170.38,-116 170.38,-80 10.88,-80"/>
<text xml:space="preserve" text-anchor="middle" x="27.12" y="-93.33" font-family="Roboto" font-size="14.00">C3</text>
<polyline fill="none" stroke="#333333" points="43.38,-80 43.38,-116"/>
<text xml:space="preserve" text-anchor="middle" x="60.38" y="-93.33" font-family="Roboto" font-size="14.00">BC</text>
<polyline fill="none" stroke="#333333" points="77.38,-80 77.38,-116"/>
<text xml:space="preserve" text-anchor="middle" x="92.88" y="-93.33" font-family="Roboto" font-size="14.00">62</text>
<polyline fill="none" stroke="#333333" points="108.38,-80 108.38,-116"/>
<text xml:space="preserve" text-anchor="middle" x="123.88" y="-93.33" font-family="Roboto" font-size="14.00">65</text>
<polyline fill="none" stroke="#333333" points="139.38,-80 139.38,-116"/>
<text xml:space="preserve" text-anchor="middle" x="154.88" y="-93.33" font-family="Roboto" font-size="14.00">72</text>
</g>
<!-- p1&#45;&gt;bytes -->
<g id="edge1" class="edge bad">
<title>p1:px&#45;&gt;bytes:b0</title>
<path fill="none" stroke="#333333" stroke-dasharray="5,2" d="M33.12,-187C33.12,-172.49 12.75,-181.78 5.88,-169 -1.39,-155.5 -0.57,-148.41 5.88,-134.5 8.8,-128.18 15.16,-127.19 20.16,-125.33"/>
<polygon fill="#333333" stroke="#333333" points="22.75,-127.71 26.19,-117.69 17.25,-123.38 22.75,-127.71"/>
<text xml:space="preserve" text-anchor="start" x="5.88" y="-155.7" font-family="Roboto" font-size="14.00"> one byte only:</text>
<text xml:space="preserve" text-anchor="middle" x="54.25" y="-138.45" font-family="Roboto" font-size="14.00"> x == ?ü is false</text>
</g>
<!-- p1&#45;&gt;bytes -->
<g id="edge2" class="edge dim">
<title>p1:pr&#45;&gt;bytes:b2</title>
<path fill="none" stroke="#333333" stroke-dasharray="1,5" d="M87,-187C87,-176.41 98.92,-178.92 102.62,-169 107.99,-154.64 106.39,-149.36 102.62,-134.5 101.65,-130.64 99.66,-128.46 97.73,-126.45"/>
<polygon fill="#333333" stroke="#333333" points="101.07,-125.31 93.54,-117.86 94.78,-128.38 101.07,-125.31"/>
</g>
<!-- p2 -->
<g id="node3" class="node">
<title>p2</title>
<polygon fill="#f2f2f2" stroke="#333333" points="0,-3.25 0,-39.25 139.25,-39.25 139.25,-3.25 0,-3.25"/>
<text xml:space="preserve" text-anchor="middle" x="27.12" y="-16.57" font-family="Roboto" font-size="14.00">x::utf8</text>
<polyline fill="none" stroke="#333333" points="54.25,-3.25 54.25,-39.25"/>
<text xml:space="preserve" text-anchor="middle" x="96.75" y="-16.57" font-family="Roboto" font-size="14.00">rest::binary</text>
</g>
<!-- bytes&#45;&gt;p2 -->
<g id="edge3" class="edge">
<title>bytes:b0&#45;&gt;p2:px</title>
<path fill="none" stroke="#333333" d="M27.12,-68.17C27.12,-58.94 27.12,-53.2 27.12,-40.25"/>
<polygon fill="#333333" stroke="#333333" points="23.63,-67.99 27.13,-77.99 30.63,-67.99 23.63,-67.99"/>
</g>
<!-- bytes&#45;&gt;p2 -->
<g id="edge4" class="edge">
<title>bytes:b1&#45;&gt;p2:px</title>
<path fill="none" stroke="#333333" d="M56.82,-68.71C48.24,-58.06 27.12,-58.47 27.12,-40.25"/>
<polygon fill="#333333" stroke="#333333" points="53.45,-69.66 59.9,-78.06 60.09,-67.47 53.45,-69.66"/>
</g>
<!-- bytes&#45;&gt;p2 -->
<g id="edge5" class="edge dim">
<title>bytes:b2&#45;&gt;p2:pr</title>
<path fill="none" stroke="#333333" stroke-dasharray="1,5" d="M93.51,-68.14C94.62,-58.92 96.75,-53.26 96.75,-40.25"/>
<polygon fill="#333333" stroke="#333333" points="90.03,-67.81 92.96,-77.99 97.02,-68.2 90.03,-67.81"/>
</g>
<!-- l0 -->
<g id="node4" class="node">
<title>l0</title>
<text xml:space="preserve" text-anchor="middle" x="253.62" y="-93.33" font-family="Roboto" font-size="14.00">&quot;über&quot; is five bytes</text>
</g>
<!-- l1 -->
<g id="node5" class="node">
<title>l1</title>
<text xml:space="preserve" text-anchor="middle" x="236.62" y="-200.82" font-family="Roboto" font-size="14.00">&lt;&lt;x, rest::binary&gt;&gt; = &quot;über&quot;</text>
</g>
<!-- l2 -->
<g id="node6" class="node">
<title>l2</title>
<text xml:space="preserve" text-anchor="start" x="164.88" y="-25.2" font-family="Roboto" font-size="14.00">&lt;&lt;x::utf8, rest::binary&gt;&gt; = &quot;über&quot;</text>
<text xml:space="preserve" text-anchor="middle" x="261.62" y="-7.95" font-family="Roboto" font-size="14.00"> x takes both bytes of ü</text>
</g>
</g>
</svg>
