<?xml version="1.0" encoding="UTF-8" standalone="no"?>
<!DOCTYPE svg PUBLIC "-//W3C//DTD SVG 1.1//EN"
 "http://www.w3.org/Graphics/SVG/1.1/DTD/svg11.dtd">
<!-- Generated by graphviz version 16.1.0 (0)
 -->
<!-- Title: utf8 Pages: 1 -->
<svg width="501pt" height="212pt"
 viewBox="0.00 0.00 501.00 212.00" xmlns="http://www.w3.org/2000/svg" xmlns:xlink="http://www.w3.org/1999/xlink">
<g id="graph0" class="graph" transform="scale(1 1) rotate(0) translate(14.4 197.4)">
<title>utf8</title>
<!-- chars -->
<g id="node1" class="node hl">
<title>chars</title>
<polygon fill="#f2f2f2" stroke="#333333" points="47.62,-146.5 47.62,-182.5 158.38,-182.5 158.38,-146.5 47.62,-146.5"/>
<text xml:space="preserve" text-anchor="middle" x="59.38" y="-159.82" font-family="Roboto" font-size="14.00">h</text>
<polyline fill="none" stroke="#333333" points="71.12,-146.5 71.12,-182.5"/>
<text xml:space="preserve" text-anchor="middle" x="82.88" y="-159.82" font-family="Roboto" font-size="14.00">e</text>
<polyline fill="none" stroke="#333333" points="94.62,-146.5 94.62,-182.5"/>
<text xml:space="preserve" text-anchor="middle" x="104.5" y="-159.82" font-family="Roboto" font-size="14.00">ł</text>
<polyline fill="none" stroke="#333333" points="114.38,-146.5 114.38,-182.5"/>
<text xml:space="preserve" text-anchor="middle" x="124.25" y="-159.82" font-family="Roboto" font-size="14.00">ł</text>
<polyline fill="none" stroke="#333333" points="134.12,-146.5 134.12,-182.5"/>
<text xml:space="preserve" text-anchor="middle" x="146.25" y="-159.82" font-family="Roboto" font-size="14.00">o</text>
</g>
<!-- cps -->
<g id="node2" class="node">
<title>cps</title>
<polygon fill="#f2f2f2" stroke="#333333" points="7.75,-73.5 7.75,-109.5 200.25,-109.5 200.25,-73.5 7.75,-73.5"/>
<text xml:space="preserve" text-anchor="middle" x="27" y="-86.83" font-family="Roboto" font-size="14.00">104</text>
<polyline fill="none" stroke="#333333" points="46.25,-73.5 46.25,-109.5"/>
<text xml:space="preserve" text-anchor="middle" x="65.5" y="-86.83" font-family="Roboto" font-size="14.00">101</text>
<polyline fill="none" stroke="#333333" points="84.75,-73.5 84.75,-109.5"/>
<text xml:space="preserve" text-anchor="middle" x="104" y="-86.83" font-family="Roboto" font-size="14.00">322</text>
<polyline fill="none" stroke="#333333" points="123.25,-73.5 123.25,-109.5"/>
<text xml:space="preserve" text-anchor="middle" x="142.5" y="-86.83" font-family="Roboto" font-size="14.00">322</text>
<polyline fill="none" stroke="#333333" points="161.75,-73.5 161.75,-109.5"/>
<text xml:space="preserve" text-anchor="middle" x="181" y="-86.83" font-family="Roboto" font-size="14.00">111</text>
</g>
<!-- chars&#45;&gt;cps -->
<g id="edge1" class="edge">
<title>chars:c0&#45;&gt;cps:p0</title>
<path fill="none" stroke="#333333" d="M59.38,-146C59.38,-129.19 39.61,-129.81 30.97,-120.62"/>
<polygon fill="#333333" stroke="#333333" points="34.31,-119.56 27.53,-111.42 27.75,-122.01 34.31,-119.56"/>
</g>
<!-- chars&#45;&gt;cps -->
<g id="edge2" class="edge">
<title>chars:c1&#45;&gt;cps:p1</title>
<path fill="none" stroke="#333333" d="M82.88,-146C82.88,-132.81 73.3,-129.16 68.37,-120.88"/>
<polygon fill="#333333" stroke="#333333" points="71.82,-120.24 65.89,-111.46 65.05,-122.03 71.82,-120.24"/>
</g>
<!-- chars&#45;&gt;cps -->
<g id="edge3" class="edge">
<title>chars:c2&#45;&gt;cps:p2</title>
<path fill="none" stroke="#333333" d="M104.5,-146C104.5,-134.62 104.25,-129.32 104.1,-121.45"/>
<polygon fill="#333333" stroke="#333333" points="107.6,-121.48 104.01,-111.51 100.6,-121.54 107.6,-121.48"/>
</g>
<!-- chars&#45;&gt;cps -->
<g id="edge4" class="edge">
<title>chars:c3&#45;&gt;cps:p3</title>
<path fill="none" stroke="#333333" d="M124.25,-146C124.25,-132.69 134.3,-129.19 139.49,-120.93"/>
<polygon fill="#333333" stroke="#333333" points="142.81,-122.03 142.1,-111.46 136.07,-120.17 142.81,-122.03"/>
</g>
<!-- chars&#45;&gt;cps -->
<g id="edge5" class="edge">
<title>chars:c4&#45;&gt;cps:p4</title>
<path fill="none" stroke="#333333" d="M146.25,-146C146.25,-128.45 167.89,-130.03 177.01,-120.55"/>
<polygon fill="#333333" stroke="#333333" points="180.2,-122.01 180.46,-111.42 173.66,-119.53 180.2,-122.01"/>
</g>
<!-- bytes -->
<g id="node3" class="node">
<title>bytes</title>
<polygon fill="#f2f2f2" stroke="#333333" points="0,-0.5 0,-36.5 220,-36.5 220,-0.5 0,-0.5"/>
<text xml:space="preserve" text-anchor="middle" x="15.5" y="-13.82" font-family="Roboto" font-size="14.00">68</text>
<polyline fill="none" stroke="#333333" points="31,-0.5 31,-36.5"/>
<text xml:space="preserve" text-anchor="middle" x="46.5" y="-13.82" font-family="Roboto" font-size="14.00">65</text>
<polyline fill="none" stroke="#333333" points="62,-0.5 62,-36.5"/>
<text xml:space="preserve" text-anchor="middle" x="78.25" y="-13.82" font-family="Roboto" font-size="14.00">C5</text>
<polyline fill="none" stroke="#333333" points="94.5,-0.5 94.5,-36.5"/>
<text xml:space="preserve" text-anchor="middle" x="110" y="-13.82" font-family="Roboto" font-size="14.00">82</text>
<polyline fill="none" stroke="#333333" points="125.5,-0.5 125.5,-36.5"/>
<text xml:space="preserve" text-anchor="middle" x="141.75" y="-13.82" font-family="Roboto" font-size="14.00">C5</text>
<polyline fill="none" stroke="#333333" points="158,-0.5 158,-36.5"/>
<text xml:space="preserve" text-anchor="middle" x="173.5" y="-13.82" font-family="Roboto" font-size="14.00">82</text>
<polyline fill="none" stroke="#333333" points="189,-0.5 189,-36.5"/>
<text xml:space="preserve" text-anchor="middle" x="204.5" y="-13.82" font-family="Roboto" font-size="14.00">6F</text>
</g>
<!-- cps&#45;&gt;bytes -->
<g id="edge6" class="edge">
<title>cps:p0&#45;&gt;bytes:b0</title>
<path fill="none" stroke="#333333" d="M27,-73C27,-60.8 20.93,-56.19 17.61,-48.14"/>
<polygon fill="#333333" stroke="#333333" points="21.08,-47.66 15.78,-38.49 14.2,-48.96 21.08,-47.66"/>
</g>
<!-- cps&#45;&gt;bytes -->
<g id="edge7" class="edge">
<title>cps:p1&#45;&gt;bytes:b1</title>
<path fill="none" stroke="#333333" d="M65.5,-73C65.5,-59.57 55.03,-56.21 49.64,-47.98"/>
<polygon fill="#333333" stroke="#333333" points="53.03,-47.11 46.92,-38.46 46.3,-49.03 53.03,-47.11"/>
</g>
<!-- cps&#45;&gt;bytes -->
<g id="edge8" class="edge">
<title>cps:p2&#45;&gt;bytes:b2</title>
<path fill="none" stroke="#333333" d="M104,-73C104,-57.94 88.91,-56.37 81.83,-47.63"/>
<polygon fill="#333333" stroke="#333333" points="85.24,-46.79 78.73,-38.43 78.61,-49.03 85.24,-46.79"/>
</g>
<!-- cps&#45;&gt;bytes -->
<g id="edge9" class="edge">
<title>cps:p2&#45;&gt;bytes:b3</title>
<path fill="none" stroke="#333333" d="M104,-73C104,-61.34 107.1,-56.22 108.84,-48.24"/>
<polygon fill="#333333" stroke="#333333" points="112.3,-48.81 109.85,-38.51 105.34,-48.09 112.3,-48.81"/>
</g>
<!-- cps&#45;&gt;bytes -->
<g id="edge10" class="edge">
<title>cps:p3&#45;&gt;bytes:b4</title>
<path fill="none" stroke="#333333" d="M142.5,-73C142.5,-61.62 142.12,-56.32 141.9,-48.45"/>
<polygon fill="#333333" stroke="#333333" points="145.4,-48.47 141.77,-38.51 138.4,-48.56 145.4,-48.47"/>
</g>
<!-- cps&#45;&gt;bytes -->
<g id="edge11" class="edge">
<title>cps:p3&#45;&gt;bytes:b5</title>
<path fill="none" stroke="#333333" d="M142.5,-73C142.5,-56.67 161.04,-56.7 169.45,-47.78"/>
<polygon fill="#333333" stroke="#333333" points="172.72,-49.01 172.97,-38.42 166.17,-46.54 172.72,-49.01"/>
</g>
<!-- cps&#45;&gt;bytes -->
<g id="edge12" class="edge">
<title>cps:p4&#45;&gt;bytes:b6</title>
<path fill="none" stroke="#333333" d="M181,-73C181,-58.52 194.5,-56.29 201.03,-47.74"/>
<polygon fill="#333333" stroke="#333333" points="204.29,-49.03 204.03,-38.44 197.63,-46.88 204.29,-49.03"/>
</g>
<!-- l1 -->
<g id="node4" class="node">
<title>l1</title>
<text xml:space="preserve" text-anchor="middle" x="217" y="-159.82" font-family="Roboto" font-size="14.00">characters</text>
</g>
<!-- l2 -->
<g id="node5" class="node">
<title>l2</title>
<text xml:space="preserve" text-anchor="middle" x="296" y="-86.83" font-family="Roboto" font-size="14.00">code points (Unicode)</text>
</g>
<!-- l3 -->
<g id="node6" class="node">
<title>l3</title>
<text xml:space="preserve" text-anchor="middle" x="355" y="-13.82" font-family="Roboto" font-size="14.00">bytes (UTF&#45;8, 1 to 4 per code point)</text>
</g>
</g>
</svg>
