<?xml version="1.0" encoding="UTF-8" standalone="no"?>
<!DOCTYPE svg PUBLIC "-//W3C//DTD SVG 1.1//EN"
 "http://www.w3.org/Graphics/SVG/1.1/DTD/svg11.dtd">
<!-- Generated by graphviz version 16.1.0 (0)
 -->
<!-- Title: restart_tree Pages: 1 -->
<svg width="651pt" height="257pt"
 viewBox="0.00 0.00 651.00 257.00" xmlns="http://www.w3.org/2000/svg" xmlns:xlink="http://www.w3.org/1999/xlink">
<g id="graph0" class="graph" transform="scale(1 1) rotate(0) translate(14.4 242.9)">
<title>restart_tree</title>
<!-- sup -->
<g id="node1" class="node hl">
<title>sup</title>
<polygon fill="#f2f2f2" stroke="#333333" points="289,-228.5 186,-228.5 186,-192.5 289,-192.5 289,-228.5"/>
<text xml:space="preserve" text-anchor="middle" x="237.5" y="-205.82" font-family="Roboto" font-size="14.00">KV supervisor</text>
</g>
<!-- reg -->
<g id="node2" class="node">
<title>reg</title>
<polygon fill="#f2f2f2" stroke="#333333" points="67,-127.38 0,-127.38 0,-91.38 67,-91.38 67,-127.38"/>
<text xml:space="preserve" text-anchor="middle" x="33.5" y="-104.7" font-family="Roboto" font-size="14.00">Registry</text>
</g>
<!-- sup&#45;&gt;reg -->
<g id="edge1" class="edge">
<title>sup&#45;&gt;reg</title>
<path fill="none" stroke="#333333" d="M190.98,-192.11C157.98,-179.1 113.05,-160.04 75.5,-139.25 72.5,-137.59 69.45,-135.77 66.42,-133.88"/>
<polygon fill="#333333" stroke="#333333" points="68.53,-131.07 58.24,-128.52 64.69,-136.93 68.53,-131.07"/>
<text xml:space="preserve" text-anchor="middle" x="150.75" y="-161.2" font-family="Roboto" font-size="14.00"> 1</text>
</g>
<!-- ds -->
<g id="node3" class="node">
<title>ds</title>
<polygon fill="#f2f2f2" stroke="#333333" points="230,-130.62 85,-130.62 85,-88.12 230,-88.12 230,-130.62"/>
<text xml:space="preserve" text-anchor="middle" x="157.5" y="-113.33" font-family="Roboto" font-size="14.00">DynamicSupervisor</text>
<text xml:space="preserve" text-anchor="middle" x="157.5" y="-96.08" font-family="Roboto" font-size="14.00">KV.BucketSupervisor</text>
</g>
<!-- sup&#45;&gt;ds -->
<g id="edge2" class="edge">
<title>sup&#45;&gt;ds</title>
<path fill="none" stroke="#333333" d="M223.57,-192.23C211.82,-177.69 194.77,-156.56 180.94,-139.42"/>
<polygon fill="#333333" stroke="#333333" points="183.99,-137.63 174.99,-132.05 178.55,-142.03 183.99,-137.63"/>
<text xml:space="preserve" text-anchor="middle" x="212.64" y="-161.2" font-family="Roboto" font-size="14.00"> 2</text>
</g>
<!-- ts -->
<g id="node5" class="node">
<title>ts</title>
<polygon fill="#f2f2f2" stroke="#333333" points="389.12,-130.62 247.88,-130.62 247.88,-88.12 389.12,-88.12 389.12,-130.62"/>
<text xml:space="preserve" text-anchor="middle" x="318.5" y="-113.33" font-family="Roboto" font-size="14.00">Task.Supervisor</text>
<text xml:space="preserve" text-anchor="middle" x="318.5" y="-96.08" font-family="Roboto" font-size="14.00">KV.ServerSupervisor</text>
</g>
<!-- sup&#45;&gt;ts -->
<g id="edge3" class="edge">
<title>sup&#45;&gt;ts</title>
<path fill="none" stroke="#333333" d="M251.61,-192.23C263.5,-177.69 280.76,-156.56 294.77,-139.42"/>
<polygon fill="#333333" stroke="#333333" points="297.18,-142 300.8,-132.04 291.76,-137.57 297.18,-142"/>
<text xml:space="preserve" text-anchor="middle" x="283.62" y="-161.2" font-family="Roboto" font-size="14.00"> 3</text>
</g>
<!-- acc -->
<g id="node7" class="node hl">
<title>acc</title>
<polygon fill="#f2f2f2" stroke="#333333" points="622.25,-139.25 406.75,-139.25 406.75,-79.5 622.25,-79.5 622.25,-139.25"/>
<text xml:space="preserve" text-anchor="middle" x="514.5" y="-121.95" font-family="Roboto" font-size="14.00">Task: the acceptor</text>
<text xml:space="preserve" text-anchor="middle" x="514.5" y="-104.7" font-family="Roboto" font-size="14.00">restart: :permanent</text>
<text xml:space="preserve" text-anchor="middle" x="514.5" y="-87.45" font-family="Roboto" font-size="14.00">(Supervisor.child_spec override)</text>
</g>
<!-- sup&#45;&gt;acc -->
<g id="edge4" class="edge">
<title>sup&#45;&gt;acc</title>
<path fill="none" stroke="#333333" d="M286.38,-192.01C323.77,-178.63 376.42,-159.79 421.72,-143.58"/>
<polygon fill="#333333" stroke="#333333" points="422.8,-146.91 431.04,-140.24 420.44,-140.32 422.8,-146.91"/>
<text xml:space="preserve" text-anchor="middle" x="396.62" y="-161.2" font-family="Roboto" font-size="14.00"> 4, last</text>
</g>
<!-- bk -->
<g id="node4" class="node">
<title>bk</title>
<polygon fill="#f2f2f2" stroke="#333333" points="235.88,-42.5 45.12,-42.5 45.12,0 235.88,0 235.88,-42.5"/>
<text xml:space="preserve" text-anchor="middle" x="140.5" y="-25.2" font-family="Roboto" font-size="14.00">KV.Bucket processes</text>
<text xml:space="preserve" text-anchor="middle" x="140.5" y="-7.95" font-family="Roboto" font-size="14.00">restart: :permanent (default)</text>
</g>
<!-- ds&#45;&gt;bk -->
<g id="edge5" class="edge">
<title>ds&#45;&gt;bk</title>
<path fill="none" stroke="#333333" d="M153.47,-87.96C151.47,-77.85 149.02,-65.4 146.78,-54.07"/>
<polygon fill="#333333" stroke="#333333" points="150.22,-53.43 144.85,-44.3 143.35,-54.79 150.22,-53.43"/>
</g>
<!-- conn -->
<g id="node6" class="node">
<title>conn</title>
<polygon fill="#f2f2f2" stroke="#333333" points="419.5,-42.5 253.5,-42.5 253.5,0 419.5,0 419.5,-42.5"/>
<text xml:space="preserve" text-anchor="middle" x="336.5" y="-25.2" font-family="Roboto" font-size="14.00">one task per connection</text>
<text xml:space="preserve" text-anchor="middle" x="336.5" y="-7.95" font-family="Roboto" font-size="14.00">restart: :temporary</text>
</g>
<!-- ts&#45;&gt;conn -->
<g id="edge6" class="edge">
<title>ts&#45;&gt;conn</title>
<path fill="none" stroke="#333333" d="M322.77,-87.96C324.88,-77.85 327.48,-65.4 329.85,-54.07"/>
<polygon fill="#333333" stroke="#333333" points="333.27,-54.8 331.89,-44.29 326.42,-53.37 333.27,-54.8"/>
</g>
</g>
</svg>
