<?xml version="1.0" encoding="UTF-8" standalone="no"?>
<!DOCTYPE svg PUBLIC "-//W3C//DTD SVG 1.1//EN"
 "http://www.w3.org/Graphics/SVG/1.1/DTD/svg11.dtd">
<!-- Generated by graphviz version 16.1.0 (0)
 -->
<!-- Title: aliases Pages: 1 -->
<svg width="431pt" height="197pt"
 viewBox="0.00 0.00 431.00 197.00" xmlns="http://www.w3.org/2000/svg" xmlns:xlink="http://www.w3.org/1999/xlink">
<g id="graph0" class="graph" transform="scale(1 1) rotate(0) translate(14.4 182.28)">
<title>aliases</title>
<!-- s -->
<g id="node1" class="node">
<title>s</title>
<polygon fill="#f2f2f2" stroke="#333333" points="59.38,-36 5.38,-36 5.38,0 59.38,0 59.38,-36"/>
<text xml:space="preserve" text-anchor="middle" x="32.38" y="-13.32" font-family="Roboto" font-size="14.00">String</text>
</g>
<!-- a1 -->
<g id="node2" class="node hl">
<title>a1</title>
<polygon fill="#f2f2f2" stroke="#333333" points="337.25,-36 238.75,-36 238.75,0 337.25,0 337.25,-36"/>
<text xml:space="preserve" text-anchor="middle" x="288" y="-13.32" font-family="Roboto" font-size="14.00">:&quot;Elixir.String&quot;</text>
</g>
<!-- s&#45;&gt;a1 -->
<g id="edge1" class="edge">
<title>s&#45;&gt;a1</title>
<path fill="none" stroke="#333333" d="M59.56,-18C98.83,-18 174.01,-18 227.17,-18"/>
<polygon fill="#333333" stroke="#333333" points="226.98,-21.5 236.98,-18 226.98,-14.5 226.98,-21.5"/>
<text xml:space="preserve" text-anchor="middle" x="119.12" y="-21.95" font-family="Roboto" font-size="14.00"> expands to</text>
</g>
<!-- f -->
<g id="node3" class="node">
<title>f</title>
<polygon fill="#f2f2f2" stroke="#333333" points="64.75,-90 0,-90 0,-54 64.75,-54 64.75,-90"/>
<text xml:space="preserve" text-anchor="middle" x="32.38" y="-67.33" font-family="Roboto" font-size="14.00">Foo.Bar</text>
</g>
<!-- a2 -->
<g id="node4" class="node hl">
<title>a2</title>
<polygon fill="#f2f2f2" stroke="#333333" points="343.62,-90 232.38,-90 232.38,-54 343.62,-54 343.62,-90"/>
<text xml:space="preserve" text-anchor="middle" x="288" y="-67.33" font-family="Roboto" font-size="14.00">:&quot;Elixir.Foo.Bar&quot;</text>
</g>
<!-- f&#45;&gt;a2 -->
<g id="edge2" class="edge">
<title>f&#45;&gt;a2</title>
<path fill="none" stroke="#333333" d="M65.24,-72C104,-72 170.44,-72 220.52,-72"/>
<polygon fill="#333333" stroke="#333333" points="220.39,-75.5 230.39,-72 220.39,-68.5 220.39,-75.5"/>
<text xml:space="preserve" text-anchor="middle" x="119.12" y="-75.95" font-family="Roboto" font-size="14.00"> expands to</text>
</g>
<!-- l -->
<g id="node5" class="node hl">
<title>l</title>
<polygon fill="#f2f2f2" stroke="#333333" points="59.38,-156 5.38,-156 5.38,-120 59.38,-120 59.38,-156"/>
<text xml:space="preserve" text-anchor="middle" x="32.38" y="-133.32" font-family="Roboto" font-size="14.00">:lists</text>
</g>
<!-- note -->
<g id="node6" class="node dim">
<title>note</title>
<polygon fill="#f2f2f2" stroke="#333333" points="402.5,-167.88 173.5,-167.88 173.5,-108.12 402.5,-108.12 402.5,-167.88"/>
<text xml:space="preserve" text-anchor="middle" x="288" y="-150.57" font-family="Roboto" font-size="14.00">Erlang modules are bare atoms.</text>
<text xml:space="preserve" text-anchor="middle" x="288" y="-133.32" font-family="Roboto" font-size="14.00">The Elixir. prefix keeps Elixir</text>
<text xml:space="preserve" text-anchor="middle" x="288" y="-116.08" font-family="Roboto" font-size="14.00">modules from clashing with them.</text>
</g>
<!-- l&#45;&gt;note -->
<g id="edge3" class="edge dim">
<title>l&#45;&gt;note</title>
<path fill="none" stroke="#333333" stroke-dasharray="1,5" d="M59.56,-138C84.21,-138 123.02,-138 161.65,-138"/>
<polygon fill="#333333" stroke="#333333" points="161.56,-141.5 171.56,-138 161.56,-134.5 161.56,-141.5"/>
</g>
</g>
</svg>
