<?xml version="1.0" encoding="UTF-8" standalone="no"?>
<!DOCTYPE svg PUBLIC "-//W3C//DTD SVG 1.1//EN"
 "http://www.w3.org/Graphics/SVG/1.1/DTD/svg11.dtd">
<!-- Generated by graphviz version 16.1.0 (0)
 -->
<!-- Title: calls Pages: 1 -->
<svg width="636pt" height="242pt"
 viewBox="0.00 0.00 636.00 242.00" xmlns="http://www.w3.org/2000/svg" xmlns:xlink="http://www.w3.org/1999/xlink">
<g id="graph0" class="graph" transform="scale(1 1) rotate(0) translate(14.4 227.15)">
<title>calls</title>
<g id="clust1" class="cluster">
<title>cluster_local</title>
<polygon fill="none" stroke="black" points="8,-121 8,-204.75 287,-204.75 287,-121 8,-121"/>
<text xml:space="preserve" text-anchor="middle" x="147.5" y="-187.45" font-family="Roboto" font-size="14.00">a call inside the module (public or private)</text>
</g>
<g id="clust2" class="cluster">
<title>cluster_remote</title>
<polygon fill="none" stroke="black" points="295,-8 295,-204.75 599,-204.75 599,-8 295,-8"/>
<text xml:space="preserve" text-anchor="middle" x="447" y="-187.45" font-family="Roboto" font-size="14.00">Math.sum(1, 2) from another module</text>
</g>
<!-- l -->
<g id="node1" class="node hl">
<title>l</title>
<polygon fill="#f2f2f2" stroke="#333333" points="269,-171.5 25,-171.5 25,-129 269,-129 269,-171.5"/>
<text xml:space="preserve" text-anchor="middle" x="147" y="-154.2" font-family="Roboto" font-size="14.00">call_only to a label in the same code</text>
<text xml:space="preserve" text-anchor="middle" x="147" y="-136.95" font-family="Roboto" font-size="14.00">a jump</text>
</g>
<!-- r -->
<g id="node2" class="node">
<title>r</title>
<polygon fill="#f2f2f2" stroke="#333333" points="576.88,-171.5 317.12,-171.5 317.12,-129 576.88,-129 576.88,-171.5"/>
<text xml:space="preserve" text-anchor="middle" x="447" y="-154.2" font-family="Roboto" font-size="14.00">call_ext_only through the import table:</text>
<text xml:space="preserve" text-anchor="middle" x="447" y="-136.95" font-family="Roboto" font-size="14.00">the VM finds Math.sum/2 in its exports</text>
</g>
<!-- ld -->
<g id="node3" class="node hl">
<title>ld</title>
<polygon fill="#f2f2f2" stroke="#333333" points="590.75,-75.75 303.25,-75.75 303.25,-16 590.75,-16 590.75,-75.75"/>
<text xml:space="preserve" text-anchor="middle" x="447" y="-58.45" font-family="Roboto" font-size="14.00">first call to a module not yet loaded:</text>
<text xml:space="preserve" text-anchor="middle" x="447" y="-41.2" font-family="Roboto" font-size="14.00">the VM opens Elixir.Math.beam and reads it</text>
<text xml:space="preserve" text-anchor="middle" x="447" y="-23.95" font-family="Roboto" font-size="14.00">then the module stays in memory</text>
</g>
<!-- r&#45;&gt;ld -->
<g id="edge1" class="edge">
<title>r&#45;&gt;ld</title>
<path fill="none" stroke="#333333" stroke-dasharray="5,2" d="M447,-128.53C447,-116.76 447,-101.6 447,-87.54"/>
<polygon fill="#333333" stroke="#333333" points="450.5,-87.61 447,-77.61 443.5,-87.61 450.5,-87.61"/>
<text xml:space="preserve" text-anchor="start" x="447" y="-97.7" font-family="Roboto" font-size="14.00"> if not loaded</text>
</g>
</g>
</svg>
