<?xml version="1.0" encoding="UTF-8" standalone="no"?>
<!DOCTYPE svg PUBLIC "-//W3C//DTD SVG 1.1//EN"
 "http://www.w3.org/Graphics/SVG/1.1/DTD/svg11.dtd">
<!-- Generated by graphviz version 16.1.0 (0)
 -->
<!-- Title: compile_time Pages: 1 -->
<svg width="1101pt" height="135pt"
 viewBox="0.00 0.00 1101.00 135.00" xmlns="http://www.w3.org/2000/svg" xmlns:xlink="http://www.w3.org/1999/xlink">
<g id="graph0" class="graph" transform="scale(1 1) rotate(0) translate(14.4 120.9)">
<title>compile_time</title>
<!-- attr -->
<g id="node1" class="node">
<title>attr</title>
<polygon fill="#f2f2f2" stroke="#333333" points="284.5,-56 0,-56 0,-20 284.5,-20 284.5,-56"/>
<text xml:space="preserve" text-anchor="middle" x="142.25" y="-33.33" font-family="Roboto" font-size="14.00">@service URI.parse(&quot;https://example.com&quot;)</text>
</g>
<!-- val -->
<g id="node2" class="node hl">
<title>val</title>
<polygon fill="#f2f2f2" stroke="#333333" points="692.75,-90 430.75,-90 430.75,-54 692.75,-54 692.75,-90"/>
<text xml:space="preserve" text-anchor="middle" x="561.75" y="-67.33" font-family="Roboto" font-size="14.00">%URI{host: &quot;example.com&quot;, port: 443, …}</text>
</g>
<!-- attr&#45;&gt;val -->
<g id="edge1" class="edge">
<title>attr&#45;&gt;val</title>
<path fill="none" stroke="#333333" d="M284.89,-49.53C328.18,-53.06 375.78,-56.94 419.07,-60.46"/>
<polygon fill="#333333" stroke="#333333" points="418.51,-63.93 428.77,-61.25 419.08,-56.95 418.51,-63.93"/>
<text xml:space="preserve" text-anchor="start" x="306.62" y="-80.25" font-family="Roboto" font-size="14.00"> evaluated once,</text>
<text xml:space="preserve" text-anchor="start" x="306.62" y="-63" font-family="Roboto" font-size="14.00"> at compile time</text>
</g>
<!-- gone -->
<g id="node4" class="node dim">
<title>gone</title>
<polygon fill="#f2f2f2" stroke="#333333" points="665.75,-36 457.75,-36 457.75,0 665.75,0 665.75,-36"/>
<text xml:space="preserve" text-anchor="middle" x="561.75" y="-13.32" font-family="Roboto" font-size="14.00">the attribute itself is discarded</text>
</g>
<!-- attr&#45;&gt;gone -->
<g id="edge3" class="edge dim">
<title>attr&#45;&gt;gone</title>
<path fill="none" stroke="#333333" stroke-dasharray="1,5" d="M284.76,-26.77C290.75,-26.4 296.69,-26.06 302.5,-25.75 349.47,-23.24 401.29,-21.49 446.11,-20.29"/>
<polygon fill="#333333" stroke="#333333" points="445.93,-23.8 455.83,-20.04 445.75,-16.8 445.93,-23.8"/>
<text xml:space="preserve" text-anchor="middle" x="357.62" y="-29.7" font-family="Roboto" font-size="14.00"> after compilation</text>
</g>
<!-- fun -->
<g id="node3" class="node">
<title>fun</title>
<polygon fill="#f2f2f2" stroke="#333333" points="1072.5,-101.88 868.25,-101.88 868.25,-42.12 1072.5,-42.12 1072.5,-101.88"/>
<text xml:space="preserve" text-anchor="start" x="876.25" y="-84.58" font-family="Roboto" font-size="14.00">def status(email) do</text>
<text xml:space="preserve" text-anchor="start" x="876.25" y="-67.33" font-family="Roboto" font-size="14.00"> &#160;SomeHttpClient.get(%URI{…})</text>
<text xml:space="preserve" text-anchor="start" x="876.25" y="-50.08" font-family="Roboto" font-size="14.00">end</text>
</g>
<!-- val&#45;&gt;fun -->
<g id="edge2" class="edge">
<title>val&#45;&gt;fun</title>
<path fill="none" stroke="#333333" d="M693.09,-72C745.67,-72 805.77,-72 856.46,-72"/>
<polygon fill="#333333" stroke="#333333" points="856.27,-75.5 866.27,-72 856.27,-68.5 856.27,-75.5"/>
<text xml:space="preserve" text-anchor="start" x="710.75" y="-93.2" font-family="Roboto" font-size="14.00"> the value is pasted in,</text>
<text xml:space="preserve" text-anchor="start" x="710.75" y="-75.95" font-family="Roboto" font-size="14.00"> not the call</text>
</g>
</g>
</svg>
